G04*
G04 #@! TF.GenerationSoftware,Altium Limited,Altium Designer,18.1.9 (240)*
G04*
G04 Layer_Color=16711935*
%FSLAX25Y25*%
%MOIN*%
G70*
G01*
G75*
%ADD42O,0.08674X0.06115*%
%ADD43O,0.05721X0.04934*%
%ADD44C,0.06706*%
%ADD45R,0.06706X0.06706*%
%ADD46R,0.06706X0.06706*%
%ADD47C,0.24422*%
%ADD48C,0.02769*%
%ADD49C,0.03200*%
D42*
X-2406Y22171D02*
D03*
Y49829D02*
D03*
D43*
X9406Y26453D02*
D03*
Y45547D02*
D03*
D44*
X77126Y-31D02*
D03*
X87126D02*
D03*
X97126D02*
D03*
X77126Y78969D02*
D03*
X87126D02*
D03*
X97126D02*
D03*
X157480Y59469D02*
D03*
Y49469D02*
D03*
Y39469D02*
D03*
Y29469D02*
D03*
D45*
X107126Y-31D02*
D03*
Y78969D02*
D03*
D46*
X157480Y19469D02*
D03*
D47*
Y0D02*
D03*
X-0Y78740D02*
D03*
X157480D02*
D03*
X-0Y0D02*
D03*
D48*
X53937Y41339D02*
D03*
Y45669D02*
D03*
X58268Y41339D02*
D03*
Y45669D02*
D03*
D49*
X-0Y87740D02*
D03*
X-6364Y85104D02*
D03*
X-9000Y78740D02*
D03*
X-6364Y72376D02*
D03*
X-0Y69740D02*
D03*
X6364Y72376D02*
D03*
X9000Y78740D02*
D03*
X6364Y85104D02*
D03*
X163844D02*
D03*
X166480Y78740D02*
D03*
X163844Y72376D02*
D03*
X157480Y69740D02*
D03*
X151116Y72376D02*
D03*
X148480Y78740D02*
D03*
X151116Y85104D02*
D03*
X157480Y87740D02*
D03*
Y9000D02*
D03*
X151116Y6364D02*
D03*
X148480Y0D02*
D03*
X151116Y-6364D02*
D03*
X157480Y-9000D02*
D03*
X163844Y-6364D02*
D03*
X166480Y0D02*
D03*
X163844Y6364D02*
D03*
X6364D02*
D03*
X9000Y0D02*
D03*
X6364Y-6364D02*
D03*
X-0Y-9000D02*
D03*
X-6364Y-6364D02*
D03*
X-9000Y0D02*
D03*
X-6364Y6364D02*
D03*
X-0Y9000D02*
D03*
M02*
