G04*
G04 #@! TF.GenerationSoftware,Altium Limited,Altium Designer,18.1.9 (240)*
G04*
G04 Layer_Color=8388736*
%FSLAX25Y25*%
%MOIN*%
G70*
G01*
G75*
%ADD29R,0.10839X0.10839*%
%ADD30R,0.04147X0.01981*%
%ADD31R,0.01981X0.04147*%
%ADD32R,0.06115X0.02375*%
%ADD33R,0.04737X0.04343*%
%ADD34R,0.05131X0.05131*%
%ADD35R,0.04343X0.03556*%
%ADD36R,0.03950X0.03950*%
%ADD37R,0.04147X0.04147*%
%ADD38R,0.05131X0.06312*%
%ADD39R,0.04343X0.06312*%
%ADD40R,0.04343X0.04737*%
%ADD41R,0.05131X0.05131*%
%ADD42O,0.08674X0.06115*%
%ADD43O,0.05721X0.04934*%
%ADD44C,0.06706*%
%ADD45R,0.06706X0.06706*%
%ADD46R,0.06706X0.06706*%
%ADD47C,0.24422*%
%ADD48C,0.02769*%
%ADD49C,0.03200*%
D29*
X56102Y43504D02*
D03*
D30*
X63779Y48425D02*
D03*
Y46457D02*
D03*
Y44488D02*
D03*
Y42520D02*
D03*
Y40551D02*
D03*
Y38583D02*
D03*
X48425D02*
D03*
Y40551D02*
D03*
Y42520D02*
D03*
Y44488D02*
D03*
Y46457D02*
D03*
Y48425D02*
D03*
D31*
X61024Y35827D02*
D03*
X59055D02*
D03*
X57087D02*
D03*
X55118D02*
D03*
X53150D02*
D03*
X51181D02*
D03*
Y51181D02*
D03*
X53150D02*
D03*
X55118D02*
D03*
X57087D02*
D03*
X59055D02*
D03*
X61024D02*
D03*
D32*
X8126Y30882D02*
D03*
Y33441D02*
D03*
Y36000D02*
D03*
Y38559D02*
D03*
Y41118D02*
D03*
D33*
X40520Y12992D02*
D03*
Y6693D02*
D03*
X33622Y6913D02*
D03*
Y13213D02*
D03*
X49213Y18504D02*
D03*
Y24803D02*
D03*
D34*
X57087Y17693D02*
D03*
Y24780D02*
D03*
D35*
X64961Y26256D02*
D03*
Y20744D02*
D03*
D36*
X130976Y29442D02*
D03*
X125071D02*
D03*
X130976Y19442D02*
D03*
X125071D02*
D03*
D37*
X108661Y28110D02*
D03*
X113780D02*
D03*
X108661Y37110D02*
D03*
X113780D02*
D03*
D38*
X28543Y45449D02*
D03*
D39*
X21850D02*
D03*
Y36788D02*
D03*
X29331D02*
D03*
D40*
X31142Y20754D02*
D03*
X37441D02*
D03*
D41*
X28976Y28744D02*
D03*
X36063D02*
D03*
D42*
X-2406Y22171D02*
D03*
Y49829D02*
D03*
D43*
X9406Y26453D02*
D03*
Y45547D02*
D03*
D44*
X77126Y-31D02*
D03*
X87126D02*
D03*
X97126D02*
D03*
X77126Y78969D02*
D03*
X87126D02*
D03*
X97126D02*
D03*
X157480Y59469D02*
D03*
Y49469D02*
D03*
Y39469D02*
D03*
Y29469D02*
D03*
D45*
X107126Y-31D02*
D03*
Y78969D02*
D03*
D46*
X157480Y19469D02*
D03*
D47*
Y0D02*
D03*
X-0Y78740D02*
D03*
X157480D02*
D03*
X-0Y0D02*
D03*
D48*
X53937Y41339D02*
D03*
Y45669D02*
D03*
X58268Y41339D02*
D03*
Y45669D02*
D03*
D49*
X-0Y87740D02*
D03*
X-6364Y85104D02*
D03*
X-9000Y78740D02*
D03*
X-6364Y72376D02*
D03*
X-0Y69740D02*
D03*
X6364Y72376D02*
D03*
X9000Y78740D02*
D03*
X6364Y85104D02*
D03*
X163844D02*
D03*
X166480Y78740D02*
D03*
X163844Y72376D02*
D03*
X157480Y69740D02*
D03*
X151116Y72376D02*
D03*
X148480Y78740D02*
D03*
X151116Y85104D02*
D03*
X157480Y87740D02*
D03*
Y9000D02*
D03*
X151116Y6364D02*
D03*
X148480Y0D02*
D03*
X151116Y-6364D02*
D03*
X157480Y-9000D02*
D03*
X163844Y-6364D02*
D03*
X166480Y0D02*
D03*
X163844Y6364D02*
D03*
X6364D02*
D03*
X9000Y0D02*
D03*
X6364Y-6364D02*
D03*
X-0Y-9000D02*
D03*
X-6364Y-6364D02*
D03*
X-9000Y0D02*
D03*
X-6364Y6364D02*
D03*
X-0Y9000D02*
D03*
M02*
