G04*
G04 #@! TF.GenerationSoftware,Altium Limited,Altium Designer,18.1.9 (240)*
G04*
G04 Layer_Color=65535*
%FSLAX25Y25*%
%MOIN*%
G70*
G01*
G75*
%ADD10C,0.00984*%
%ADD11C,0.00394*%
%ADD12C,0.00787*%
%ADD13C,0.01000*%
%ADD14C,0.00600*%
%ADD15C,0.00800*%
G36*
X28221Y83908D02*
X26184Y80390D01*
X22389Y86985D01*
X19659D01*
X21279Y89808D01*
X24819D01*
X28221Y83908D01*
D02*
G37*
G36*
X24009Y82751D02*
X16396D01*
X15031Y80390D01*
X13411Y83213D01*
X15193Y86291D01*
X21973D01*
X24009Y82751D01*
D02*
G37*
G36*
X24958Y79696D02*
X24009Y78030D01*
X22112D01*
X21163Y79696D01*
X22112Y81316D01*
X24009D01*
X24958Y79696D01*
D02*
G37*
G36*
X32710Y83213D02*
X29308Y77313D01*
X25236D01*
X29054Y83908D01*
X27689Y86291D01*
X30951D01*
X32710Y83213D01*
D02*
G37*
G36*
Y76156D02*
X30951Y73101D01*
X24148D01*
X22112Y76618D01*
X29725D01*
X31067Y78979D01*
X32710Y76156D01*
D02*
G37*
G36*
X17090Y75438D02*
X18432Y73101D01*
X15193D01*
X13411Y76156D01*
X16790Y82033D01*
X20885D01*
X17090Y75438D01*
D02*
G37*
G36*
X23755Y72384D02*
X26462D01*
X24819Y69584D01*
X21279D01*
X17900Y75438D01*
X19937Y78979D01*
X23755Y72384D01*
D02*
G37*
G36*
X140283Y21826D02*
X140325Y21817D01*
X140362Y21803D01*
X140394Y21789D01*
X140426Y21770D01*
X140450Y21757D01*
X140463Y21747D01*
X140468Y21743D01*
X140496Y21711D01*
X140514Y21674D01*
X140533Y21636D01*
X140542Y21600D01*
X140547Y21567D01*
X140551Y21544D01*
Y21526D01*
Y21521D01*
Y17146D01*
X140547Y17095D01*
X140537Y17053D01*
X140524Y17017D01*
X140510Y16984D01*
X140496Y16957D01*
X140482Y16938D01*
X140473Y16929D01*
X140468Y16924D01*
X140422Y16896D01*
X140380Y16873D01*
X140343Y16860D01*
X140311Y16846D01*
X140283Y16841D01*
X140265Y16836D01*
X140246D01*
X140205Y16841D01*
X140168Y16850D01*
X140126Y16864D01*
X140094Y16883D01*
X140061Y16896D01*
X140038Y16910D01*
X140024Y16919D01*
X140020Y16924D01*
X137835Y19109D01*
X137807Y19156D01*
X137784Y19197D01*
X137770Y19234D01*
X137756Y19266D01*
X137751Y19294D01*
X137747Y19313D01*
Y19327D01*
Y19331D01*
X137751Y19373D01*
X137761Y19410D01*
X137775Y19451D01*
X137788Y19484D01*
X137807Y19516D01*
X137821Y19539D01*
X137830Y19553D01*
X137835Y19557D01*
X140020Y21743D01*
X140066Y21770D01*
X140108Y21794D01*
X140145Y21808D01*
X140177Y21821D01*
X140205Y21826D01*
X140228Y21831D01*
X140246D01*
X140283Y21826D01*
D02*
G37*
G36*
X138535Y31964D02*
X138563Y31959D01*
X138595Y31945D01*
X138633Y31931D01*
X138674Y31908D01*
X138720Y31881D01*
X140905Y29695D01*
X140910Y29691D01*
X140919Y29677D01*
X140933Y29654D01*
X140952Y29621D01*
X140966Y29589D01*
X140979Y29548D01*
X140989Y29511D01*
X140993Y29469D01*
Y29464D01*
Y29451D01*
X140989Y29432D01*
X140984Y29404D01*
X140970Y29372D01*
X140956Y29335D01*
X140933Y29293D01*
X140905Y29247D01*
X138720Y27062D01*
X138716Y27057D01*
X138702Y27048D01*
X138679Y27034D01*
X138646Y27020D01*
X138614Y27002D01*
X138572Y26988D01*
X138535Y26979D01*
X138494Y26974D01*
X138475D01*
X138457Y26979D01*
X138429Y26983D01*
X138397Y26997D01*
X138360Y27011D01*
X138318Y27034D01*
X138272Y27062D01*
X138268Y27067D01*
X138258Y27076D01*
X138244Y27094D01*
X138231Y27122D01*
X138217Y27154D01*
X138203Y27191D01*
X138194Y27233D01*
X138189Y27284D01*
Y31659D01*
Y31664D01*
Y31682D01*
X138194Y31705D01*
X138198Y31737D01*
X138207Y31774D01*
X138226Y31811D01*
X138244Y31848D01*
X138272Y31881D01*
X138277Y31885D01*
X138291Y31894D01*
X138314Y31908D01*
X138346Y31927D01*
X138378Y31941D01*
X138415Y31955D01*
X138457Y31964D01*
X138494Y31968D01*
X138512D01*
X138535Y31964D01*
D02*
G37*
D10*
X64468Y54527D02*
G03*
X64468Y54527I-492J0D01*
G01*
X13441Y41118D02*
G03*
X13441Y41118I-492J0D01*
G01*
D11*
X32087Y45449D02*
G03*
X32087Y45449I-197J0D01*
G01*
D12*
X47638Y50590D02*
Y51968D01*
X49016D01*
X47638Y35039D02*
Y36417D01*
Y35039D02*
X49016D01*
X63189D02*
X64567D01*
Y36417D01*
Y50590D02*
Y51968D01*
X63189D02*
X64567D01*
X3000Y50764D02*
X8815D01*
Y49185D02*
Y50764D01*
Y21236D02*
Y22815D01*
X3000Y21236D02*
X8815D01*
X-13232D02*
X-7811D01*
X-13232D02*
Y50764D01*
X-7811D01*
X38945Y9646D02*
Y10039D01*
X42095Y9646D02*
Y10039D01*
X35197Y9866D02*
Y10260D01*
X32048Y9866D02*
Y10260D01*
X55315Y21039D02*
Y21433D01*
X58858Y21039D02*
Y21433D01*
X47638Y21457D02*
Y21850D01*
X50788Y21457D02*
Y21850D01*
X112126Y-5031D02*
Y4969D01*
X72126Y-5031D02*
X112126D01*
X72126Y4969D02*
X112126D01*
X72126Y-5031D02*
Y4969D01*
X112126Y73969D02*
Y83969D01*
X72126Y73969D02*
X112126D01*
X72126Y83969D02*
X112126D01*
X72126Y73969D02*
Y83969D01*
X63583Y23303D02*
Y23697D01*
X66339Y23303D02*
Y23697D01*
X152480Y14469D02*
X162480D01*
X152480D02*
Y64469D01*
X162480Y14469D02*
Y64469D01*
X152480D02*
X162480D01*
X31496Y40331D02*
Y41906D01*
X19685Y40331D02*
Y41906D01*
X24803Y43874D02*
X25197D01*
X24803Y38362D02*
X26378D01*
X34094Y22329D02*
X34488D01*
X34094Y19179D02*
X34488D01*
X32323Y30516D02*
X32717D01*
X32323Y26972D02*
X32717D01*
D13*
X133976Y26489D02*
Y32395D01*
X132945Y26489D02*
X133976D01*
X135976Y26542D02*
Y32448D01*
X132945Y32395D02*
X133976D01*
X122118D02*
X132945D01*
X122118Y26489D02*
X132945D01*
X122118D02*
Y32395D01*
X133976Y16489D02*
Y22395D01*
X132945Y16489D02*
X133976D01*
X135976Y16542D02*
Y22448D01*
X132945Y22395D02*
X133976D01*
X122118D02*
X132945D01*
X122118Y16489D02*
X132945D01*
X122118D02*
Y22395D01*
X47245Y64520D02*
Y59522D01*
X48245Y58522D01*
X50244D01*
X51244Y59522D01*
Y64520D01*
X53243Y58522D02*
X55242D01*
X54243D01*
Y64520D01*
X53243Y63520D01*
D14*
X106102Y30669D02*
X116339D01*
X106102Y25551D02*
X116339D01*
X106102D02*
Y30669D01*
X116339Y25551D02*
Y30669D01*
X106102Y39669D02*
X116339D01*
X106102Y34551D02*
X116339D01*
X106102D02*
Y39669D01*
X116339Y34551D02*
Y39669D01*
D15*
X142189Y30944D02*
X144157D01*
X143173D01*
Y27993D01*
X145141Y30944D02*
X147109Y27993D01*
Y30944D02*
X145141Y27993D01*
X148093Y30944D02*
Y27993D01*
X149568D01*
X150060Y28485D01*
Y30452D01*
X149568Y30944D01*
X148093D01*
X35335Y72441D02*
Y75393D01*
X36811D01*
X37303Y74901D01*
Y73917D01*
X36811Y73425D01*
X35335D01*
X38287Y75393D02*
Y73425D01*
Y74409D01*
X38778Y74901D01*
X39270Y75393D01*
X39762D01*
X41730Y73425D02*
X42714D01*
X43206Y73917D01*
Y74901D01*
X42714Y75393D01*
X41730D01*
X41238Y74901D01*
Y73917D01*
X41730Y73425D01*
X44682Y75885D02*
Y75393D01*
X44190D01*
X45174D01*
X44682D01*
Y73917D01*
X45174Y73425D01*
X47142D02*
X48126D01*
X48618Y73917D01*
Y74901D01*
X48126Y75393D01*
X47142D01*
X46650Y74901D01*
Y73917D01*
X47142Y73425D01*
X49602Y75393D02*
X51570Y73425D01*
X50586Y74409D01*
X51570Y75393D01*
X49602Y73425D01*
X52553D02*
Y73917D01*
X53045D01*
Y73425D01*
X52553D01*
X56981Y75393D02*
X55505D01*
X55013Y74901D01*
Y73917D01*
X55505Y73425D01*
X56981D01*
X57965D02*
X58949D01*
X58457D01*
Y76377D01*
X57965D01*
X35335Y81397D02*
Y79429D01*
X36319Y78445D01*
X37303Y79429D01*
Y81397D01*
X38287Y78445D02*
X39270D01*
X38778D01*
Y81397D01*
X38287Y80905D01*
X40746Y78445D02*
Y78937D01*
X41238D01*
Y78445D01*
X40746D01*
X43206Y80905D02*
X43698Y81397D01*
X44682D01*
X45174Y80905D01*
Y78937D01*
X44682Y78445D01*
X43698D01*
X43206Y78937D01*
Y80905D01*
X35335Y83563D02*
Y86515D01*
X36811D01*
X37303Y86023D01*
Y85039D01*
X36811Y84547D01*
X35335D01*
X38287Y83563D02*
Y86515D01*
X39762D01*
X40254Y86023D01*
Y85039D01*
X39762Y84547D01*
X38287D01*
X39270D02*
X40254Y83563D01*
X42714Y86515D02*
X41730D01*
X41238Y86023D01*
Y84055D01*
X41730Y83563D01*
X42714D01*
X43206Y84055D01*
Y86023D01*
X42714Y86515D01*
X44190D02*
X46158D01*
X45174D01*
Y83563D01*
X48618Y86515D02*
X47634D01*
X47142Y86023D01*
Y84055D01*
X47634Y83563D01*
X48618D01*
X49110Y84055D01*
Y86023D01*
X48618Y86515D01*
X52062Y86023D02*
X51570Y86515D01*
X50586D01*
X50094Y86023D01*
Y85531D01*
X50586Y85039D01*
X51570D01*
X52062Y84547D01*
Y84055D01*
X51570Y83563D01*
X50586D01*
X50094Y84055D01*
X55013Y86515D02*
X53045D01*
Y83563D01*
X55013D01*
X53045Y85039D02*
X54029D01*
X55997Y83563D02*
Y86515D01*
X57473D01*
X57965Y86023D01*
Y85039D01*
X57473Y84547D01*
X55997D01*
X56981D02*
X57965Y83563D01*
X58949Y86515D02*
X59933D01*
X59441D01*
Y83563D01*
X58949D01*
X59933D01*
X61409D02*
Y85531D01*
X62393Y86515D01*
X63377Y85531D01*
Y83563D01*
Y85039D01*
X61409D01*
X64361Y86515D02*
Y83563D01*
X66329D01*
X76142Y65451D02*
X75650Y64959D01*
Y63975D01*
X76142Y63483D01*
X78110D01*
X78602Y63975D01*
Y64959D01*
X78110Y65451D01*
X75650Y66435D02*
X78602D01*
Y68403D01*
X75650Y69387D02*
X78602D01*
X77618D01*
X75650Y71355D01*
X77126Y69879D01*
X78602Y71355D01*
X88602Y61023D02*
X85650D01*
Y62007D02*
X88602D01*
X86634Y60532D02*
Y62007D01*
Y62499D01*
X87618Y60532D02*
Y62499D01*
X85650Y63483D02*
X88602D01*
Y64959D01*
X88110Y65451D01*
X86142D01*
X85650Y64959D01*
Y63483D01*
X86142Y68403D02*
X85650Y67911D01*
Y66927D01*
X86142Y66435D01*
X88110D01*
X88602Y66927D01*
Y67911D01*
X88110Y68403D01*
X85650Y69387D02*
X88602D01*
Y70863D01*
X88110Y71355D01*
X86142D01*
X85650Y70863D01*
Y69387D01*
X98602Y61023D02*
X95650D01*
Y62007D02*
X98602D01*
X96634Y60532D02*
Y62007D01*
Y62499D01*
X97618Y60532D02*
Y62499D01*
X95650Y63483D02*
X98602D01*
Y64959D01*
X98110Y65451D01*
X96142D01*
X95650Y64959D01*
Y63483D01*
Y66435D02*
Y68403D01*
Y67419D01*
X98602D01*
Y69387D02*
X95650D01*
Y70863D01*
X96142Y71355D01*
X97126D01*
X97618Y70863D01*
Y69387D01*
Y70371D02*
X98602Y71355D01*
X108602Y61023D02*
X105650D01*
Y62007D02*
X108602D01*
X106634Y60532D02*
Y62007D01*
Y62499D01*
X107618Y60532D02*
Y62499D01*
X105650Y63483D02*
X108602D01*
Y64959D01*
X108110Y65451D01*
X106142D01*
X105650Y64959D01*
Y63483D01*
X106142Y68403D02*
X105650Y67911D01*
Y66927D01*
X106142Y66435D01*
X106634D01*
X107126Y66927D01*
Y67911D01*
X107618Y68403D01*
X108110D01*
X108602Y67911D01*
Y66927D01*
X108110Y66435D01*
X108602Y69387D02*
X105650D01*
Y70863D01*
X106142Y71355D01*
X107126D01*
X107618Y70863D01*
Y69387D01*
Y70371D02*
X108602Y71355D01*
Y8242D02*
X105650D01*
Y9226D02*
X108602D01*
X106634Y7750D02*
Y9226D01*
Y9718D01*
X107618Y7750D02*
Y9718D01*
X108602Y10702D02*
X105650D01*
Y12178D01*
X106142Y12670D01*
X107126D01*
X107618Y12178D01*
Y10702D01*
Y11686D02*
X108602Y12670D01*
X105650Y13653D02*
Y15621D01*
Y14637D01*
X108602D01*
X106142Y18573D02*
X105650Y18081D01*
Y17097D01*
X106142Y16605D01*
X106634D01*
X107126Y17097D01*
Y18081D01*
X107618Y18573D01*
X108110D01*
X108602Y18081D01*
Y17097D01*
X108110Y16605D01*
X98602Y8210D02*
X95650D01*
Y9194D02*
X98602D01*
X96634Y7718D02*
Y9194D01*
Y9686D01*
X97618Y7718D02*
Y9686D01*
X96142Y12638D02*
X95650Y12146D01*
Y11162D01*
X96142Y10670D01*
X98110D01*
X98602Y11162D01*
Y12146D01*
X98110Y12638D01*
X95650Y13622D02*
Y15590D01*
Y14606D01*
X98602D01*
X96142Y18542D02*
X95650Y18050D01*
Y17066D01*
X96142Y16574D01*
X96634D01*
X97126Y17066D01*
Y18050D01*
X97618Y18542D01*
X98110D01*
X98602Y18050D01*
Y17066D01*
X98110Y16574D01*
X86142Y9686D02*
X85650Y9194D01*
Y8210D01*
X86142Y7718D01*
X88110D01*
X88602Y8210D01*
Y9194D01*
X88110Y9686D01*
X87126D01*
Y8702D01*
X88602Y10670D02*
X85650D01*
Y12146D01*
X86142Y12638D01*
X87126D01*
X87618Y12146D01*
Y10670D01*
X85650Y13622D02*
Y14606D01*
Y14114D01*
X88602D01*
Y13622D01*
Y14606D01*
X85650Y17558D02*
Y16574D01*
X86142Y16082D01*
X88110D01*
X88602Y16574D01*
Y17558D01*
X88110Y18050D01*
X86142D01*
X85650Y17558D01*
X88602Y21001D02*
Y19034D01*
X86634Y21001D01*
X86142D01*
X85650Y20509D01*
Y19525D01*
X86142Y19034D01*
X76142Y9686D02*
X75650Y9194D01*
Y8210D01*
X76142Y7718D01*
X78110D01*
X78602Y8210D01*
Y9194D01*
X78110Y9686D01*
X77126D01*
Y8702D01*
X78602Y10670D02*
X75650D01*
Y12146D01*
X76142Y12638D01*
X77126D01*
X77618Y12146D01*
Y10670D01*
X75650Y13622D02*
Y14606D01*
Y14114D01*
X78602D01*
Y13622D01*
Y14606D01*
X75650Y17558D02*
Y16574D01*
X76142Y16082D01*
X78110D01*
X78602Y16574D01*
Y17558D01*
X78110Y18050D01*
X76142D01*
X75650Y17558D01*
X76142Y19034D02*
X75650Y19525D01*
Y20509D01*
X76142Y21001D01*
X76634D01*
X77126Y20509D01*
Y20018D01*
Y20509D01*
X77618Y21001D01*
X78110D01*
X78602Y20509D01*
Y19525D01*
X78110Y19034D01*
X142189Y60452D02*
X142681Y60944D01*
X143665D01*
X144157Y60452D01*
Y59961D01*
X143665Y59469D01*
X143173D01*
X143665D01*
X144157Y58977D01*
Y58485D01*
X143665Y57993D01*
X142681D01*
X142189Y58485D01*
X145141Y60944D02*
Y58977D01*
X146125Y57993D01*
X147109Y58977D01*
Y60944D01*
X148093Y60452D02*
X148585Y60944D01*
X149568D01*
X150060Y60452D01*
Y58485D01*
X149568Y57993D01*
X148585D01*
X148093Y58485D01*
Y60452D01*
X144157Y50944D02*
X142189D01*
Y49468D01*
X143173Y49961D01*
X143665D01*
X144157Y49468D01*
Y48485D01*
X143665Y47993D01*
X142681D01*
X142189Y48485D01*
X145141Y50944D02*
Y48976D01*
X146125Y47993D01*
X147109Y48976D01*
Y50944D01*
X148093Y50452D02*
X148585Y50944D01*
X149568D01*
X150060Y50452D01*
Y48485D01*
X149568Y47993D01*
X148585D01*
X148093Y48485D01*
Y50452D01*
X144157Y40452D02*
X143665Y40944D01*
X142681D01*
X142189Y40452D01*
Y38485D01*
X142681Y37993D01*
X143665D01*
X144157Y38485D01*
Y39469D01*
X143173D01*
X145141Y37993D02*
Y40944D01*
X147109Y37993D01*
Y40944D01*
X148093D02*
Y37993D01*
X149568D01*
X150060Y38485D01*
Y40452D01*
X149568Y40944D01*
X148093D01*
X142189Y17993D02*
Y20944D01*
X143665D01*
X144157Y20452D01*
Y19468D01*
X143665Y18977D01*
X142189D01*
X143173D02*
X144157Y17993D01*
X145141Y20944D02*
X147109Y17993D01*
Y20944D02*
X145141Y17993D01*
X148093Y20944D02*
Y17993D01*
X149568D01*
X150060Y18485D01*
Y20452D01*
X149568Y20944D01*
X148093D01*
X114126Y80968D02*
Y83920D01*
X115602D01*
X116094Y83428D01*
Y82444D01*
X115602Y81952D01*
X114126D01*
X117078Y83428D02*
X117570Y83920D01*
X118554D01*
X119046Y83428D01*
Y82936D01*
X118554Y82444D01*
X118062D01*
X118554D01*
X119046Y81952D01*
Y81460D01*
X118554Y80968D01*
X117570D01*
X117078Y81460D01*
X114626Y-4532D02*
Y-1580D01*
X116102D01*
X116594Y-2072D01*
Y-3056D01*
X116102Y-3548D01*
X114626D01*
X119546Y-4532D02*
X117578D01*
X119546Y-2564D01*
Y-2072D01*
X119054Y-1580D01*
X118070D01*
X117578Y-2072D01*
X164370Y14567D02*
Y17519D01*
X165846D01*
X166338Y17027D01*
Y16043D01*
X165846Y15551D01*
X164370D01*
X167322Y14567D02*
X168306D01*
X167814D01*
Y17519D01*
X167322Y17027D01*
X66461Y13000D02*
X63509D01*
Y14476D01*
X64001Y14968D01*
X64985D01*
X65477Y14476D01*
Y13000D01*
Y13984D02*
X66461Y14968D01*
X63509Y17920D02*
Y15952D01*
X64985D01*
X64493Y16936D01*
Y17428D01*
X64985Y17920D01*
X65969D01*
X66461Y17428D01*
Y16444D01*
X65969Y15952D01*
X98120Y26610D02*
Y29562D01*
X99596D01*
X100088Y29070D01*
Y28086D01*
X99596Y27594D01*
X98120D01*
X99104D02*
X100088Y26610D01*
X102548D02*
Y29562D01*
X101072Y28086D01*
X103040D01*
X98120Y35610D02*
Y38562D01*
X99596D01*
X100088Y38070D01*
Y37086D01*
X99596Y36594D01*
X98120D01*
X99104D02*
X100088Y35610D01*
X101072Y38070D02*
X101564Y38562D01*
X102548D01*
X103040Y38070D01*
Y37578D01*
X102548Y37086D01*
X102056D01*
X102548D01*
X103040Y36594D01*
Y36102D01*
X102548Y35610D01*
X101564D01*
X101072Y36102D01*
X34552Y-2974D02*
X31600D01*
Y-1498D01*
X32092Y-1006D01*
X33076D01*
X33568Y-1498D01*
Y-2974D01*
Y-1990D02*
X34552Y-1006D01*
Y1946D02*
Y-22D01*
X32584Y1946D01*
X32092D01*
X31600Y1454D01*
Y470D01*
X32092Y-22D01*
X41452Y-3274D02*
X38500D01*
Y-1798D01*
X38992Y-1306D01*
X39976D01*
X40468Y-1798D01*
Y-3274D01*
Y-2290D02*
X41452Y-1306D01*
Y-322D02*
Y662D01*
Y170D01*
X38500D01*
X38992Y-322D01*
X1181Y56692D02*
Y55216D01*
X1673Y54724D01*
X3149D01*
Y56692D01*
X4133Y57676D02*
Y55216D01*
X4625Y54724D01*
X5609D01*
X6101Y55216D01*
Y57676D01*
X9053Y57184D02*
X8561Y57676D01*
X7577D01*
X7085Y57184D01*
Y56692D01*
X7577Y56200D01*
X8561D01*
X9053Y55708D01*
Y55216D01*
X8561Y54724D01*
X7577D01*
X7085Y55216D01*
X10036Y57676D02*
Y54724D01*
X11512D01*
X12004Y55216D01*
Y55708D01*
X11512Y56200D01*
X10036D01*
X11512D01*
X12004Y56692D01*
Y57184D01*
X11512Y57676D01*
X10036D01*
X19763Y54346D02*
Y51395D01*
X21239D01*
X21731Y51886D01*
Y53854D01*
X21239Y54346D01*
X19763D01*
X22715Y51395D02*
X23699D01*
X23207D01*
Y54346D01*
X22715Y53854D01*
X22515Y21751D02*
X22023Y22243D01*
X21039D01*
X20547Y21751D01*
Y19783D01*
X21039Y19291D01*
X22023D01*
X22515Y19783D01*
X24975Y19291D02*
Y22243D01*
X23499Y20767D01*
X25467D01*
X19009Y29741D02*
X18517Y30233D01*
X17533D01*
X17041Y29741D01*
Y27773D01*
X17533Y27281D01*
X18517D01*
X19009Y27773D01*
X19993Y29741D02*
X20485Y30233D01*
X21469D01*
X21961Y29741D01*
Y29249D01*
X21469Y28757D01*
X20977D01*
X21469D01*
X21961Y28265D01*
Y27773D01*
X21469Y27281D01*
X20485D01*
X19993Y27773D01*
X48721Y11810D02*
X48229Y11318D01*
Y10334D01*
X48721Y9843D01*
X50689D01*
X51181Y10334D01*
Y11318D01*
X50689Y11810D01*
X51181Y14762D02*
Y12794D01*
X49213Y14762D01*
X48721D01*
X48229Y14270D01*
Y13286D01*
X48721Y12794D01*
X56603Y9686D02*
X56111Y9194D01*
Y8210D01*
X56603Y7718D01*
X58571D01*
X59063Y8210D01*
Y9194D01*
X58571Y9686D01*
X59063Y10670D02*
Y11654D01*
Y11162D01*
X56111D01*
X56603Y10670D01*
M02*
