M48
;Layer_Color=9474304
;FILE_FORMAT=2:5
INCH,LZ
;TYPE=PLATED
T1F00S00C0.01181
T4F00S00C0.03543
T5F00S00C0.12598
%
T01
X015748Y-0009
X0163844Y-0006364
X016648Y0
X0163844Y0006364
X015748Y0009
X0151116Y0006364
X014252Y0006693
X014848Y0
X0151116Y-0006364
X0121063Y0021063
X011437Y0022638
X010876Y0021161
X0096752Y0019469
X0119095Y0027657
X0118214Y0030907
X0118012Y0035531
X0070472Y0036319
X0077756Y0045965
X0058268Y0045669
X0053937
Y0041339
X0058268
X005896Y0029037
X0061319Y0026575
X0045276Y0027929
X0042028Y0022933
X0042323Y0036024
X0043341Y0039075
X0047345Y0035238
X0036374Y0035689
X0038092Y0044589
X0032876Y0044786
X001378Y003887
X0015748Y0035433
X0006364Y0006364
X0009Y0
X0006364Y-0006364
X-0Y-0009
Y0009
X0045475Y0009351
X0065059Y0001969
X-0006364Y0006364
X-0009Y0
X-0006364Y-0006364
Y0072376
X-0009Y007874
X-0006364Y0085104
X-0Y008774
X0006364Y0085104
X0009Y007874
X0006364Y0072376
X-0Y006974
X0037205Y0051476
X005315Y0057087
X0057086Y0057086
X0151116Y0072376
X014848Y007874
X0151116Y0085104
X015748Y008774
X0163844Y0085104
X016648Y007874
X0163844Y0072376
X015748Y006974
T04
X015748Y0019469
Y0029469
Y0039469
X0107126Y-0000031
X0097126
X0087126
X0077126
Y0078969
X0087126
X0097126
X0107126
X015748Y0059469
Y0049469
T05
X015748Y0
X-0
Y007874
X015748
M30
